<svg height="482pt" viewBox="-61 0 482 482.56329" width="482pt" xmlns="http://www.w3.org/2000/svg" xmlns:xlink="http://www.w3.org/1999/xlink"><linearGradient id="a" gradientUnits="userSpaceOnUse" x1="180.281645" x2="180.281645" y1="-21.436705" y2="530.619295"><stop offset="0" stop-color="#fff33b"/><stop offset=".014" stop-color="#fee72e"/><stop offset=".042" stop-color="#fed51b"/><stop offset=".07" stop-color="#fdca10"/><stop offset=".1" stop-color="#fdc70c"/><stop offset=".4" stop-color="#f3903f"/><stop offset=".8" stop-color="#ed683c"/><stop offset="1" stop-color="#e93e3a"/></linearGradient><path d="m359.195312 182.746094c.710938-16.796875 1.085938-34.3125 1.085938-52.183594.269531-41.300781-2.019531-82.582031-6.863281-123.597656-.316407-2.421875-1.71875-4.5625-3.808594-5.820313-2.09375-1.257812-4.644531-1.492187-6.925781-.636719l-174.320313 64.558594c-16.863281 6.304688-34.722656 9.523438-52.722656 9.496094h-19.359375v-48c0-13.253906-10.746094-24-24-24h-32c-13.253906 0-24 10.746094-24 24v49.472656c-9.554688 3.378906-15.957031 12.394532-16 22.527344v64c.042969 10.136719 6.445312 19.152344 16 22.527344v273.472656c.023438 8.378906 4.425781 16.132812 11.609375 20.449219.207031.113281.390625.238281.613281.335937 3.578125 2.078125 7.640625 3.1875 11.777344 3.214844h32c13.253906 0 24-10.746094 24-24v-272h19.359375c18.011719-.023438 35.882813 3.195312 52.753906 9.503906l174.289063 64.554688c.886718.332031 1.824218.5 2.773437.503906 4.019531 0 7.414063-2.976562 7.9375-6.960938 2.695313-20.542968 4.640625-44.890624 5.757813-71.136718.035156-.097656.035156-.183594.042968-.28125zm-14.914062-52.183594c0 12.953125-.214844 25.6875-.597656 38.113281-6.558594-3.789062-12.847656-8.03125-18.816406-12.6875-12-9.601562-12.800782-14.753906-12.640626-16.480469.046876-.441406.160157-.984374.269532-1.648437 1.71875-8.488281 1.527344-17.253906-.566406-25.65625-1.480469-7.207031-4.921876-13.867187-9.953126-19.238281-4.746093-4.585938-10.640624-7.808594-17.0625-9.328125l-2.175781-.671875c-15.433593-4.96875-24.738281-22.539063-27.199219-27.800782-.6875-1.472656-1.28125-3.023437-1.839843-4.609374l85.070312-31.527344c3.851563 37.050781 5.691407 74.285156 5.511719 111.535156zm-304-112h32c4.417969 0 8 3.582031 8 8v48h-48v-48c0-4.417969 3.582031-8 8-8zm-24 80c0-4.417969 3.582031-8 8-8h72v80h-72c-4.417969 0-8-3.582031-8-8zm36 327.832031c1.746094.882813 3.335938 2.050781 4.695312 3.457031 0 .0625 1.992188 6.976563-24.328124 30.566407-.199219-.597657-.320313-1.222657-.367188-1.855469v-95.199219c4.050781 1.304688 7.875 3.226563 11.335938 5.703125 8.457031 6.066406 13.199218 12.273438 12.710937 16.625-.277344 2.558594-2.558594 4.710938-6.269531 7.945313-6.035156 3.851562-9.710938 10.488281-9.777344 17.648437 1.195312 6.738282 5.707031 12.417969 12 15.109375zm19.199219-189.183593c-.742188-3.632813-1.046875-5.421876-.621094-6.046876 2.371094-3.222656 5.652344-5.660156 9.421875-7v63.886719c-14.9375-3.34375-16.246094-7.414062-16.253906-7.429687.453125-1.257813 1.03125-2.46875 1.726562-3.609375 7.074219-11.980469 9.121094-26.273438 5.695313-39.761719zm8.800781-29.808594c-9.117188 1.851562-17.195312 7.089844-22.609375 14.65625-3.300781 5.558594-3.996094 12.285156-1.894531 18.402344 1.4375 5.414062 1.660156 11.078124.65625 16.589843-.863282 4.324219-2.457032 8.46875-4.710938 12.257813-3.140625 4.429687-4.296875 9.96875-3.199218 15.285156 2.542968 9.730469 12.742187 16.058594 31.742187 19.746094v154.222656c0 4.417969-3.582031 8-8 8h-22.679687c20.167968-19.199219 26.824218-32.558594 22-43.269531-2.472657-4.625-6.351563-8.339844-11.074219-10.617188l-4.292969-2.578125c1.230469-1.660156 2.691406-3.144531 4.335938-4.398437 6.140624-4.304688 10.339843-10.859375 11.679687-18.238281.839844-7.410157-1.832031-18.875-19.199219-31.355469-6.222656-4.488281-13.277344-7.691407-20.753906-9.421875v-160.121094h48zm35.359375-36.839844h-3.359375v-80h3.359375c19.90625.027344 39.652344-3.53125 58.296875-10.496094l64.753906-24c.683594 2.003906 1.472656 3.96875 2.359375 5.890625 4.0625 8.628907 15.808594 29.4375 36.703125 36.175781.800782.269532 1.695313.535157 2.632813.796876 3.828125.789062 7.367187 2.605468 10.238281 5.257812 3.050781 3.492188 5.09375 7.753906 5.90625 12.320312 1.453125 6.089844 1.523438 12.429688.207031 18.550782-.175781 1.015625-.320312 1.863281-.410156 2.59375-1.015625 9.09375 4.113281 18.351562 15.425781 28.152344-.617187 22.550781-1.9375 44.621093-3.816406 64.847656l-133.96875-49.601563c-18.65625-6.964843-38.414062-10.515625-58.328125-10.488281zm223.128906 71.535156-15.289062-5.671875c1.824219-18.398437 3.152343-38.398437 3.921875-59.015625 4.582031 2.96875 9.816406 6.074219 15.617187 9.304688-.953125 19.984375-2.371093 38.753906-4.25 55.382812zm0 0" fill="url(#a)"/></svg>