<svg height="481pt" viewBox="0 0 481 481.57912" width="481pt" xmlns="http://www.w3.org/2000/svg" xmlns:xlink="http://www.w3.org/1999/xlink"><linearGradient id="a"><stop offset="0" stop-color="#fff33b"/><stop offset=".014" stop-color="#fee72e"/><stop offset=".042" stop-color="#fed51b"/><stop offset=".07" stop-color="#fdca10"/><stop offset=".1" stop-color="#fdc70c"/><stop offset=".4" stop-color="#f3903f"/><stop offset=".8" stop-color="#ed683c"/><stop offset="1" stop-color="#e93e3a"/></linearGradient><linearGradient id="b" gradientUnits="userSpaceOnUse" x1="241.00956" x2="241.00956" xlink:href="#a" y1="-30.420875" y2="522.099125"/><linearGradient id="c" gradientUnits="userSpaceOnUse" x1="169.72156" x2="169.72156" xlink:href="#a" y1="-30.420875" y2="522.099125"/><linearGradient id="d" gradientUnits="userSpaceOnUse" x1="409.72156" x2="409.72156" xlink:href="#a" y1="-30.420875" y2="522.099125"/><path d="m480.21875 420.898438c-1.507812-2.085938-3.925781-3.320313-6.496094-3.320313h-88v-232c0-4.417969-3.582031-8-8-8h-51.433594c3.015626-2.917969 5.699219-6.164063 8-9.679687 10.351563-15.992188 11.824219-36.160157 3.90625-53.488282l-49.195312-108.144531c-1.414062-3.117187-4.65625-4.984375-8.0625-4.652344-3.410156.335938-6.226562 2.800781-7.007812 6.132813l-6.238282 26.546875c-6.847656 29.074219-20.972656 55.929687-41.050781 78.046875-.554687.617187-1.011719 1.316406-1.359375 2.070312-7.917969 17.328125-6.445312 37.496094 3.90625 53.488282 2.296875 3.515624 4.980469 6.761718 8 9.679687h-51.464844c-4.417968 0-8 3.582031-8 8v232h-80v-72c-.003906-3.863281-2.769531-7.171875-6.570312-7.863281l-88-16-2.863282 15.726562 81.433594 14.816406v73.320313h.046875c-.015625.859375.105469 1.710937.367188 2.527344l16 48c1.089843 3.265625 4.144531 5.472656 7.585937 5.472656h352c3.441406 0 6.496094-2.207031 7.582032-5.472656l16-48c.816406-2.4375.414062-5.117188-1.085938-7.207031zm-237.601562-261.664063c-7.160157-11.074219-8.378907-24.972656-3.253907-37.128906 21.429688-23.941407 36.519531-52.878907 43.886719-84.160157l.878906-3.710937 39.449219 86.800781c5.621094 12.378906 4.574219 26.765625-2.785156 38.195313-7.359375 11.429687-20.019531 18.34375-33.617188 18.347656h-10.910156c-13.609375.03125-26.289063-6.886719-33.632813-18.34375zm127.105468 34.34375v64.5625c-6.261718-2.597656-13.3125-2.503906-19.503906.253906-9.648438 4.695313-12.554688 15.144531-15.121094 24.351563-2.335937 8.386718-4.152344 13.984375-7.878906 15.199218-3.203125 1.089844-14.066406-3.085937-26.640625-7.871093-5.417969-2.070313-9.191406-3.765625-12-5.046875-4.855469-2.933594-10.570313-4.117188-16.191406-3.359375-11.257813 1.949219-17.992188 11.472656-29.167969 27.261719-3.480469 4.886718-6.6875 9.960937-9.601562 15.203124-1.410157 2.878907-3.28125 5.515626-5.535157 7.796876-7.527343 7.257812-17.09375 12.039062-27.417969 13.699218-2.28125.3125-4.582031.453125-6.886718.421875v-152.472656zm-176 168.464844c.207032 0 .414063.046875.621094.046875 2.90625-.003906 5.808594-.210938 8.683594-.621094 13.714844-2.21875 26.417968-8.601562 36.382812-18.289062 3.253906-3.296876 5.980469-7.074219 8.085938-11.199219 2.65625-4.777344 5.578125-9.394531 8.753906-13.839844 9.261719-13.089844 14.304688-19.945313 18.855469-20.738281 1.222656-.238282 1.449219-.246094 6.878906 2.191406 3.050781 1.378906 7.074219 3.203125 12.898437 5.410156 19.117188 7.277344 28.734376 10.96875 37.390626 8.09375 12.097656-4.070312 15.503906-16.292968 18.238281-26.101562 1.738281-6.265625 3.546875-12.730469 6.738281-14.296875 1.191406-.585938 4.671875-1.335938 12.472656 2.742187v142.136719h-176zm258.230469 103.535156h-340.464844l-10.664062-32h361.792969zm0 0" fill="url(#b)"/><path d="m132.210938 48.777344 20.238281 10.113281 10.113281 20.242187c1.351562 2.714844 4.125 4.429688 7.160156 4.429688 3.03125 0 5.804688-1.714844 7.160156-4.429688l10.109376-20.242187 20.242187-10.113281c2.714844-1.351563 4.429687-4.125 4.429687-7.160156 0-3.03125-1.714843-5.804688-4.429687-7.15625l-20.242187-10.113282-10.070313-20.28125c-1.503906-2.519531-4.222656-4.066406-7.160156-4.066406s-5.65625 1.546875-7.160157 4.066406l-10.113281 20.242188-20.238281 10.109375c-2.714844 1.355469-4.433594 4.128906-4.433594 7.160156 0 3.035156 1.71875 5.808594 4.433594 7.160156zm29.773437-11.359375c1.554687-.765625 2.808594-2.023438 3.578125-3.574219l4.160156-8.3125 4.160156 8.3125c.765626 1.550781 2.023438 2.808594 3.574219 3.574219l8.3125 4.160156-8.3125 4.160156c-1.550781.769531-2.808593 2.023438-3.574219 3.578125l-4.160156 8.3125-4.160156-8.3125c-.769531-1.554687-2.023438-2.808594-3.578125-3.578125l-8.3125-4.160156zm0 0" fill="url(#c)"/><path d="m372.210938 64.777344 20.238281 10.113281 10.113281 20.242187c1.351562 2.714844 4.125 4.429688 7.160156 4.429688 3.03125 0 5.804688-1.714844 7.160156-4.429688l10.109376-20.242187 20.242187-10.113281c2.714844-1.351563 4.429687-4.125 4.429687-7.160156 0-3.03125-1.714843-5.804688-4.429687-7.15625l-20.242187-10.113282-10.070313-20.28125c-1.503906-2.519531-4.222656-4.066406-7.160156-4.066406s-5.65625 1.546875-7.160157 4.066406l-10.113281 20.242188-20.238281 10.109375c-2.714844 1.355469-4.433594 4.128906-4.433594 7.160156 0 3.035156 1.71875 5.808594 4.433594 7.160156zm29.773437-11.359375c1.554687-.765625 2.808594-2.023438 3.578125-3.574219l4.160156-8.3125 4.160156 8.3125c.765626 1.550781 2.023438 2.808594 3.574219 3.574219l8.3125 4.160156-8.3125 4.160156c-1.550781.769531-2.808593 2.023438-3.574219 3.578125l-4.160156 8.3125-4.160156-8.3125c-.769531-1.554687-2.023438-2.808594-3.578125-3.578125l-8.3125-4.160156zm0 0" fill="url(#d)"/></svg>