<svg height="480pt" viewBox="0 0 480.26685 480" width="480pt" xmlns="http://www.w3.org/2000/svg" xmlns:xlink="http://www.w3.org/1999/xlink"><linearGradient id="a"><stop offset="0" stop-color="#fff33b"/><stop offset=".014" stop-color="#fee72e"/><stop offset=".042" stop-color="#fed51b"/><stop offset=".07" stop-color="#fdca10"/><stop offset=".1" stop-color="#fdc70c"/><stop offset=".4" stop-color="#f3903f"/><stop offset=".8" stop-color="#ed683c"/><stop offset="1" stop-color="#e93e3a"/></linearGradient><linearGradient id="b" gradientUnits="userSpaceOnUse" x1="240.130845" x2="240.130845" xlink:href="#a" y1="-23.866575" y2="536.133425"/><linearGradient id="c" gradientUnits="userSpaceOnUse" x1="448.266845" x2="448.266845" xlink:href="#a" y1="-23.866575" y2="536.133425"/><linearGradient id="d" gradientUnits="userSpaceOnUse" x1="280.266845" x2="280.266845" xlink:href="#a" y1="-23.866575" y2="536.133425"/><linearGradient id="e" gradientUnits="userSpaceOnUse" x1="120.266845" x2="120.266845" xlink:href="#a" y1="-23.866575" y2="536.133425"/><linearGradient id="f" gradientUnits="userSpaceOnUse" x1="208.266845" x2="208.266845" xlink:href="#a" y1="-23.866575" y2="536.133425"/><linearGradient id="g" gradientUnits="userSpaceOnUse" x1="368.266845" x2="368.266845" xlink:href="#a" y1="-23.866575" y2="536.133425"/><path d="m456.265625 200.132812h-359.863281l-33.734375-126.09375c-3.492188-12.78125-16.628907-20.359374-29.441407-16.984374l-15.457031 4.160156c-12.75 3.5-20.320312 16.59375-16.992187 29.390625l29.378906 109.527343h-5.890625c-13.253906 0-24 10.746094-24 24 0 13.253907 10.746094 24 24 24h2.074219c-6.636719 15.132813-10.0625 31.476563-10.074219 48v32c.246094 56.078126 39.121094 104.582032 93.800781 117.023438l-1.121094 4.160156c-3.445312 12.796875 4.128907 25.964844 16.921876 29.417969 2.066406.558594 4.199218.84375 6.34375.847656 10.828124-.015625 20.296874-7.304687 23.078124-17.769531l3.671876-13.679688h162.609374l3.671876 13.601563c2.773437 10.488281 12.253906 17.804687 23.105468 17.824219 2.121094-.003906 4.230469-.285156 6.277344-.839844 6.15625-1.648438 11.398438-5.675781 14.582031-11.191406 3.183594-5.519532 4.042969-12.074219 2.386719-18.226563l-1.125-4.175781c54.664062-12.441406 93.539062-60.929688 93.796875-116.992188v-32c-.007813-16.523437-3.4375-32.867187-10.070313-48h2.070313c13.257813 0 24-10.746093 24-24 0-13.253906-10.742187-24-24-24zm-440-113.597656c-.5625-2.0625-.277344-4.265625.792969-6.113281 1.070312-1.851563 2.835937-3.195313 4.902344-3.738281l15.410156-4.140625c4.28125-1.117188 8.664062 1.425781 9.824218 5.695312l32.648438 121.894531h-33.121094zm123.539063 371.199219c-.519532 2.023437-1.835938 3.757813-3.648438 4.800781-1.863281 1.09375-4.089844 1.382813-6.167969.796875-2.042969-.550781-3.785156-1.890625-4.835937-3.726562-1.050782-1.835938-1.324219-4.015625-.765625-6.054688l1.601562-5.847656c3.398438.292969 6.832031.484375 10.300781.484375h6.121094zm215.550781 1.871094c-2.238281 3.816406-7.136719 5.121093-10.976563 2.921875-1.828125-1.054688-3.148437-2.804688-3.664062-4.851563l-2.566406-9.542969h6.117187c3.480469 0 6.914063-.191406 10.304687-.488281l1.601563 5.863281c.554687 2.054688.257813 4.242188-.816406 6.074219zm92.910156-163.472657v32c-.1875 51.554688-37.972656 95.253907-88.957031 102.886719-4.980469.753907-10.007813 1.125-15.042969 1.113281h-208c-5.050781.011719-10.097656-.363281-15.09375-1.121093-50.964844-7.652344-88.71875-51.34375-88.90625-102.878907v-32c.050781-16.734374 4.167969-33.207031 12-48h392c7.832031 14.792969 11.949219 31.265626 12 48zm8-64h-432c-4.417969 0-8-3.582031-8-8 0-4.417968 3.582031-8 8-8h432c4.417969 0 8 3.582032 8 8 0 4.417969-3.582031 8-8 8zm0 0" fill="url(#b)"/><path d="m448.265625 64.132812c17.675781 0 32-14.328124 32-32 0-17.671874-14.324219-32-32-32-17.671875 0-32 14.328126-32 32 0 17.671876 14.328125 32 32 32zm0-48c8.835937 0 16 7.164063 16 16 0 8.835938-7.164063 16-16 16s-16-7.164062-16-16c0-8.835937 7.164063-16 16-16zm0 0" fill="url(#c)"/><path d="m280.265625 80.132812c17.675781 0 32-14.328124 32-32 0-17.671874-14.324219-32-32-32-17.671875 0-32 14.328126-32 32 0 17.671876 14.328125 32 32 32zm0-48c8.835937 0 16 7.164063 16 16 0 8.835938-7.164063 16-16 16s-16-7.164062-16-16c0-8.835937 7.164063-16 16-16zm0 0" fill="url(#d)"/><path d="m120.265625 112.132812c17.675781 0 32-14.328124 32-32 0-17.671874-14.324219-32-32-32-17.671875 0-32 14.328126-32 32 0 17.671876 14.328125 32 32 32zm0-48c8.835937 0 16 7.164063 16 16 0 8.835938-7.164063 16-16 16s-16-7.164062-16-16c0-8.835937 7.164063-16 16-16zm0 0" fill="url(#e)"/><path d="m208.265625 184.132812c17.675781 0 32-14.328124 32-32 0-17.671874-14.324219-32-32-32-17.671875 0-32 14.328126-32 32 0 17.671876 14.328125 32 32 32zm0-48c8.835937 0 16 7.164063 16 16 0 8.835938-7.164063 16-16 16s-16-7.164062-16-16c0-8.835937 7.164063-16 16-16zm0 0" fill="url(#f)"/><path d="m368.265625 152.132812c17.675781 0 32-14.328124 32-32 0-17.671874-14.324219-32-32-32-17.671875 0-32 14.328126-32 32 0 17.671876 14.328125 32 32 32zm0-48c8.835937 0 16 7.164063 16 16 0 8.835938-7.164063 16-16 16s-16-7.164062-16-16c0-8.835937 7.164063-16 16-16zm0 0" fill="url(#g)"/></svg>