<svg height="480pt" viewBox="0 0 480 480.00054" width="480pt" xmlns="http://www.w3.org/2000/svg"><path d="m360 136c-10.148438.007812-20.191406 2.078125-29.519531 6.078125l-11.441407 4.722656 4.160157 3.917969c-.957031-.878906-2-1.679688-3.039063-2.480469l-.960937-.957031-.398438-.160156c-17.921875-14-54.800781-25.121094-54.800781-25.121094l-3.757812-1.257812c-13.140626-4.375-27.34375-4.375-40.480469 0l-3.761719 1.257812s-36.960938 11.121094-54.800781 25.121094l-.800781.640625-3.597657 2.878906 4.160157-3.839844-11.441407-4.722656c-9.328125-4-19.371093-6.070313-29.519531-6.078125-61.757812 0-112 75.359375-112 168s50.242188 168 112 168c15.097656-.101562 29.855469-4.488281 42.558594-12.640625l9.921875-6.160156-3.039063-2.320313c42.707032 28.074219 97.992188 28.167969 140.800782.242188l-2.722657 2.078125 9.921875 6.160156c12.703125 8.152344 27.460938 12.539063 42.558594 12.640625 61.761719 0 112-75.359375 112-168s-50.238281-168-112-168zm0 0" fill="#ffa733"/><g fill="#d8d7da"><path d="m89.601562 235.574219c-4.882812 18.234375 1.359376 37.632812 15.949219 49.601562l24.242188-13.976562-6.214844 23.199219c21.867187 5.898437 44.882813-4.292969 55.214844-24.449219s5.164062-44.792969-12.394531-59.101563l-24.191407 13.953125 6.21875-23.199219c-25.625-6.855468-51.957031 8.351563-58.824219 33.972657zm0 0"/><path d="m331.578125 201.601562 6.214844 23.199219-24.191407-13.953125c-17.558593 14.308594-22.722656 38.945313-12.394531 59.101563 10.332031 20.15625 33.347657 30.347656 55.21875 24.449219l-6.21875-23.199219 24.191407 13.953125c17.558593-14.308594 22.726562-38.945313 12.394531-59.101563s-33.347657-30.347656-55.214844-24.449219zm0 0"/><path d="m432 336c.003906-4.746094-1.003906-9.4375-2.960938-13.761719-21.597656 14.160157-60.078124 25.601563-107.839843 32l4.480469 16.800781-30.960938 8.320313-5.757812-21.597656c-18.160157 1.4375-37.28125 2.238281-56.960938 2.238281-14.078125 0-27.839844-.398438-41.199219-1.199219l-5.519531 20.558594-30.960938-8.320313 4-14.878906c-37.714843-2.953125-74.730468-11.835937-109.679687-26.320312-.453125 2.019531-.667969 4.089844-.640625 6.160156 0 41.921875 77.441406 76.320312 176 79.679688v-23.679688h32v23.679688c98.558594-3.359376 176-37.757813 176-79.679688zm0 0"/></g><path d="m295.921875 8-21.679687 43.761719c-.960938 1.917969-1.84375 3.757812-2.640626 5.757812-5.027343 11.730469-7.613281 24.359375-7.601562 37.121094v27.359375l-6-.71875-2.960938-.402344c-2.480468-.238281-4.957031-.480468-7.519531-.640625-2.558593-.160156-4.960937-.238281-7.519531-.238281s-5.039062.078125-7.519531.238281c-2.480469.160157-5.039063.402344-7.519531.640625l-2.960938.402344-6 .71875v-27.359375c-.023438-13.15625 2.671875-26.175781 7.921875-38.242187.796875-1.597657 1.519531-3.199219 2.320313-4.71875l12.796874-25.917969c5.496094-10.828125 16.578126-17.683594 28.722657-17.761719zm0 0" fill="#a4e276"/><path d="m360 128c-13.960938.117188-27.6875 3.617188-40 10.199219-14.363281-10.546875-30.679688-18.144531-48-22.34375v-21.214844c-.003906-13.648437 3.1875-27.109375 9.320312-39.304687l21.839844-43.761719c1.238282-2.480469 1.105469-5.425781-.351562-7.78125-1.460938-2.359375-4.035156-3.792969-6.808594-3.792969h-28.238281c-15.121094.101562-28.921875 8.636719-35.761719 22.121094l-12.976562 26.03125c-7.25 14.421875-11.027344 30.34375-11.023438 46.488281v21.214844c-17.320312 4.199219-33.636719 11.796875-48 22.34375-12.3125-6.582031-26.039062-10.082031-40-10.199219-66.167969 0-120 78.953125-120 176s53.832031 176 120 176c18.996094-.273438 37.425781-6.496094 52.695312-17.792969 41.734376 23.722657 92.875 23.722657 134.609376 0 15.273437 11.296875 33.703124 17.519531 52.695312 17.792969 66.167969 0 120-78.953125 120-176s-53.832031-176-120-176zm-136-33.359375c-.003906-13.65625 3.191406-27.121094 9.328125-39.320313l12.9375-26.039062c4.113281-8.101562 12.410156-13.226562 21.496094-13.28125h15.300781l-16.039062 32.152344c-7.25 14.421875-11.027344 30.34375-11.023438 46.488281v18.320313c-10.628906-1.28125-21.371094-1.28125-32 0zm136 369.359375c-13.589844-.117188-26.871094-4.074219-38.3125-11.414062 6.097656-4.550782 11.808594-9.59375 17.074219-15.082032 3.039062-3.207031 2.902343-8.273437-.304688-11.3125-3.207031-3.039062-8.273437-2.902344-11.3125.304688-22.664062 23.941406-54.179687 37.5-87.144531 37.5s-64.480469-13.558594-87.144531-37.5c-3.039063-3.207032-8.105469-3.34375-11.3125-.304688-3.207031 3.039063-3.34375 8.105469-.300781 11.3125 5.265624 5.484375 10.976562 10.527344 17.070312 15.082032-11.441406 7.335937-24.722656 11.292968-38.3125 11.414062-57.34375 0-104-71.777344-104-160s46.65625-160 104-160c9.097656.046875 18.101562 1.890625 26.488281 5.414062-4.523437 4.246094-8.753906 8.789063-12.664062 13.601563-1.851563 2.222656-2.359375 5.273437-1.328125 7.976563 1.035156 2.703124 3.445312 4.636718 6.308594 5.058593 2.863281.421875 5.730468-.734375 7.5-3.027343 5.628906-7.027344 12.027343-13.40625 19.070312-19.015626l.226562-.175781c43.625-34.429687 105.175782-34.429687 148.796876 0l.234374.175781c7.050782 5.617188 13.449219 12.003907 19.078126 19.039063 2.761718 3.453125 7.796874 4.011719 11.25 1.25 3.449218-2.761719 4.007812-7.796875 1.246093-11.25-3.921875-4.8125-8.164062-9.355469-12.695312-13.597656 8.386719-3.539063 17.386719-5.390625 26.488281-5.449219 57.34375 0 104 71.777344 104 160s-46.65625 160-104 160zm0 0"/><path d="m100.511719 291.34375c2.574219 2.113281 6.1875 2.410156 9.074219.746094l7.476562-4.320313-1.214844 4.527344c-1.140625 4.265625 1.390625 8.648437 5.65625 9.792969 25.496094 6.847656 52.3125-5.035156 64.359375-28.523438 12.050781-23.484375 6.0625-52.199218-14.375-68.910156-2.574219-2.113281-6.1875-2.410156-9.070312-.746094l-7.480469 4.320313 1.214844-4.527344c1.140625-4.265625-1.390625-8.648437-5.65625-9.792969-29.871094-8.003906-60.578125 9.722656-68.582032 39.59375-5.675781 21.257813 1.59375 43.875 18.597657 57.839844zm-3.152344-53.695312c4.933594-18.355469 22.082031-30.71875 41.058594-29.601563l-3.929688 14.679687c-.835937 3.125.292969 6.445313 2.855469 8.414063 2.566406 1.96875 6.0625 2.199219 8.863281.585937l19.082031-11.007812c11.160157 11.972656 13.902344 29.539062 6.917969 44.34375s-22.285156 23.859375-38.621093 22.859375l3.925781-14.683594c.835937-3.121093-.289063-6.441406-2.855469-8.410156-2.5625-1.96875-6.0625-2.203125-8.863281-.589844l-19.082031 11.007813c-9.359376-10.097656-12.890626-24.289063-9.351563-37.597656zm0 0"/><path d="m316 296.488281c12.847656 7.460938 28.144531 9.476563 42.488281 5.601563 4.265625-1.144532 6.796875-5.527344 5.65625-9.792969l-1.214843-4.527344 7.480468 4.320313c2.882813 1.664062 6.496094 1.367187 9.070313-.746094 20.433593-16.710938 26.425781-45.425781 14.375-68.910156-12.050781-23.488282-38.867188-35.371094-64.359375-28.523438-4.265625 1.144532-6.796875 5.527344-5.65625 9.792969l1.214844 4.527344-7.476563-4.320313c-2.886719-1.664062-6.5-1.367187-9.074219.746094-14.230468 11.652344-21.828125 29.550781-20.332031 47.882812 1.496094 18.328126 11.898437 34.757813 27.828125 43.949219zm-1.296875-75.753906 19.082031 11.007813c2.800782 1.613281 6.296875 1.382812 8.863282-.585938 2.5625-1.96875 3.691406-5.289062 2.855468-8.414062l-3.902344-14.679688c16.335938-1 31.636719 8.054688 38.621094 22.859375s4.242188 32.367187-6.917968 44.34375l-19.082032-11.007813c-2.800781-1.613281-6.296875-1.382812-8.863281.585938-2.5625 1.96875-3.691406 5.289062-2.855469 8.414062l3.929688 14.679688c-16.339844 1-31.636719-8.054688-38.621094-22.859375s-4.246094-32.367187 6.914062-44.34375zm0 0"/><path d="m436.34375 318.976562c-.953125-2.140624-2.800781-3.753906-5.050781-4.414062-2.25-.664062-4.675781-.304688-6.636719.980469-20.425781 13.394531-58.511719 24.601562-104.519531 30.769531-2.277344.304688-4.316407 1.578125-5.589844 3.488281-1.277344 1.914063-1.667969 4.28125-1.074219 6.503907l2.398438 9.078124-15.503906 4.167969-3.695313-13.855469c-.996094-3.730468-4.511719-6.214843-8.359375-5.910156-32.289062 2.535156-64.710938 2.878906-97.046875 1.03125-3.808594-.28125-7.269531 2.210938-8.210937 5.910156l-3.4375 12.800782-15.503907-4.167969 1.917969-7.152344c.609375-2.257812.195312-4.671875-1.128906-6.601562-1.320313-1.929688-3.421875-3.183594-5.75-3.429688-36.820313-2.878906-72.960938-11.519531-107.105469-25.601562-2.175781-1.027344-4.703125-1.023438-6.875.019531-2.175781 1.042969-3.761719 3.007812-4.324219 5.351562-.605468 2.640626-.890625 5.34375-.847656 8.054688 0 46.078125 77.855469 83.558594 181.472656 87.59375 2.4375.8125 5.121094.402344 7.207032-1.101562 2.085937-1.503907 3.320312-3.921876 3.320312-6.492188v-16h16v16c0 2.570312 1.234375 4.988281 3.320312 6.492188 2.085938 1.503906 4.769532 1.914062 7.207032 1.101562 103.617187-4.035156 181.472656-41.515625 181.472656-87.59375-.003906-5.867188-1.25-11.671875-3.65625-17.023438zm-172.34375 88.351563v-15.328125c0-4.417969-3.582031-8-8-8h-32c-4.417969 0-8 3.582031-8 8v15.328125c-83.886719-4.464844-151.839844-32.558594-159.320312-65.335937 29.542968 10.671874 60.265624 17.742187 91.503906 21.054687l-1.597656 5.914063c-1.152344 4.265624 1.378906 8.660156 5.644531 9.808593l30.960937 8.320313c2.050782.550781 4.238282.265625 6.078125-.796875 1.839844-1.058594 3.179688-2.808594 3.730469-4.859375l3.832031-14.289063c28.695313 1.382813 57.445313 1.078125 86.105469-.914062l4.046875 15.203125c.546875 2.050781 1.890625 3.800781 3.730469 4.863281s4.027344 1.351563 6.078125.800781l30.960937-8.320312c4.257813-1.148438 6.785156-5.53125 5.644532-9.792969l-2.148438-8.089844c32.09375-3.875 63.375-12.78125 92.695312-26.398437 0 .511718.046876 1.023437.046876 1.542968.007812 35.242188-71.03125 66.554688-159.992188 71.289063zm0 0"/></svg>